<svg xmlns="http://www.w3.org/2000/svg" width="380" height="380" fill="none"><path fill="#6750A4" d="M154.828 43.276c1.746-1.426 2.62-2.14 3.417-2.741 18.785-14.18 44.725-14.18 63.51 0 .797.602 1.67 1.315 3.417 2.74.78.637 1.17.955 1.555 1.258a52.704 52.704 0 0 0 30.925 11.23c.491.016.995.022 2.002.035 2.257.027 3.385.041 4.383.092 23.526 1.184 43.398 17.82 48.652 40.73.223.973.432 2.08.852 4.292.187.987.281 1.481.381 1.96a52.48 52.48 0 0 0 16.455 28.436c.366.327.748.654 1.511 1.31 1.711 1.469 2.566 2.203 3.299 2.882 17.258 15.995 21.763 41.483 11.028 62.403-.455.888-1.007 1.87-2.111 3.834-.493.876-.74 1.315-.972 1.746a52.409 52.409 0 0 0-5.714 32.337c.07.484.151.98.314 1.972.364 2.222.546 3.333.67 4.323 2.916 23.321-10.055 45.736-31.755 54.876-.921.388-1.977.787-4.088 1.583-.942.355-1.413.533-1.869.715a52.601 52.601 0 0 0-25.21 21.106c-.259.416-.516.848-1.031 1.712-1.152 1.936-1.728 2.904-2.271 3.742-12.791 19.735-37.167 28.587-59.68 21.672-.955-.293-2.021-.665-4.151-1.409-.951-.332-1.426-.498-1.892-.651a52.744 52.744 0 0 0-32.91 0c-.466.153-.942.319-1.893.651-2.13.744-3.195 1.116-4.15 1.409-22.513 6.915-46.889-1.937-59.68-21.672-.543-.838-1.119-1.806-2.272-3.742-.514-.864-.771-1.296-1.03-1.712a52.604 52.604 0 0 0-25.21-21.106c-.456-.182-.927-.36-1.87-.715-2.11-.796-3.166-1.195-4.087-1.583-21.7-9.14-34.671-31.555-31.755-54.876.124-.99.306-2.101.67-4.323.163-.992.244-1.488.314-1.972a52.408 52.408 0 0 0-5.715-32.337c-.232-.431-.478-.87-.97-1.746-1.105-1.964-1.657-2.946-2.112-3.834-10.735-20.92-6.23-46.408 11.028-62.403.732-.679 1.588-1.413 3.298-2.882.764-.656 1.146-.983 1.512-1.31a52.484 52.484 0 0 0 16.455-28.436c.1-.479.194-.973.38-1.96.42-2.213.63-3.32.853-4.292 5.254-22.91 25.126-39.546 48.651-40.73.999-.05 2.127-.065 4.384-.093 1.007-.012 1.511-.018 2.001-.033a52.701 52.701 0 0 0 30.925-11.23c.386-.304.776-.622 1.556-1.258Z"/></svg>