<svg xmlns="http://www.w3.org/2000/svg" width="320" height="320" fill="none"><path fill="#6750A4" d="M136.725 13.187c10.536-17.583 36.014-17.583 46.55 0l11.849 19.773a27.134 27.134 0 0 0 29.871 12.373l22.36-5.604c19.882-4.982 37.898 13.034 32.916 32.916l-5.604 22.36a27.134 27.134 0 0 0 12.373 29.871l19.773 11.849c17.583 10.536 17.583 36.014 0 46.55l-19.773 11.849a27.135 27.135 0 0 0-12.373 29.871l5.604 22.36c4.982 19.882-13.034 37.898-32.916 32.916l-22.36-5.604a27.135 27.135 0 0 0-29.871 12.373l-11.849 19.773c-10.536 17.583-36.014 17.583-46.55 0l-11.849-19.773a27.134 27.134 0 0 0-29.87-12.373l-22.36 5.604c-19.883 4.982-37.9-13.034-32.917-32.916l5.604-22.36a27.134 27.134 0 0 0-12.373-29.871l-19.773-11.849c-17.583-10.536-17.583-36.014 0-46.55l19.773-11.849a27.133 27.133 0 0 0 12.373-29.87l-5.604-22.36c-4.982-19.883 13.034-37.9 32.916-32.917l22.36 5.604a27.133 27.133 0 0 0 29.871-12.373l11.849-19.773Z"/></svg>