<svg xmlns="http://www.w3.org/2000/svg" width="410" height="354" fill="none"><path fill="#000" d="M409 353V13.065c-22.546-22.648-49.061-8.186-59 1.25-9.939 10.066-35.454 24.158-58 0-22.935-22.648-48.89-9.436-59 0-9.939 9.437-35.454 22.648-58 0s-48.061-9.436-58 0c-10.11 9.437-36.065 22.648-59 0C35.453-8.333 10.939 3.43 1 12.865V353h408Z"/><path stroke="#000" d="M409 12.865V353H1V12.865c9.939-9.436 34.453-21.198 57 1.45 22.935 22.648 48.89 9.437 59 0 9.939-9.436 35.454-22.648 58 0s48.061 9.437 58 0c10.11-9.436 36.065-22.648 59 0 22.546 24.158 48.061 10.066 58 0 9.939-9.436 36.454-23.898 59-1.25"/></svg>