<svg xmlns="http://www.w3.org/2000/svg" width="320" height="320" fill="none"><path fill="#6750A4" d="M136.697 9.846c.541-.53.811-.795 1.046-1.016 12.503-11.773 32.011-11.773 44.514 0 .235.22.505.486 1.046 1.016.325.318.487.477.642.624a32.465 32.465 0 0 0 30.083 8.061c.207-.05.428-.107.868-.22.733-.189 1.1-.283 1.414-.357 16.714-3.944 33.609 5.81 38.55 22.257.093.309.195.674.398 1.403.122.438.184.657.244.862a32.467 32.467 0 0 0 22.022 22.023c.205.06.424.12.862.243.729.203 1.094.305 1.403.398 16.447 4.94 26.201 21.836 22.257 38.55-.074.314-.168.681-.357 1.414-.113.44-.17.661-.22.868a32.464 32.464 0 0 0 8.061 30.083c.147.155.306.317.624.642.53.541.795.811 1.016 1.046 11.773 12.503 11.773 32.011 0 44.514-.221.235-.486.505-1.016 1.046-.318.325-.477.487-.624.642a32.464 32.464 0 0 0-8.061 30.083c.05.207.107.428.22.868.189.733.283 1.1.357 1.414 3.944 16.714-5.81 33.609-22.257 38.55a76.57 76.57 0 0 1-1.403.398c-.438.123-.657.184-.862.244a32.467 32.467 0 0 0-22.022 22.022c-.06.205-.121.424-.244.862a76.57 76.57 0 0 1-.398 1.403c-4.941 16.447-21.836 26.201-38.55 22.257a75.407 75.407 0 0 1-1.414-.357c-.44-.113-.661-.17-.868-.22a32.464 32.464 0 0 0-30.083 8.061c-.155.147-.317.306-.642.624-.541.53-.811.795-1.046 1.016-12.503 11.773-32.011 11.773-44.514 0-.235-.221-.505-.486-1.046-1.016-.325-.318-.487-.477-.642-.624a32.464 32.464 0 0 0-30.083-8.061c-.207.05-.428.107-.868.22-.733.189-1.1.283-1.414.357-16.714 3.944-33.61-5.81-38.55-22.257-.093-.309-.195-.674-.398-1.403-.123-.438-.184-.657-.243-.862a32.467 32.467 0 0 0-22.023-22.022c-.205-.06-.424-.122-.862-.244a73.948 73.948 0 0 1-1.403-.398c-16.447-4.941-26.201-21.836-22.257-38.55.074-.314.168-.681.357-1.414.113-.44.17-.661.22-.868a32.465 32.465 0 0 0-8.06-30.083c-.148-.155-.307-.317-.625-.642-.53-.541-.795-.811-1.016-1.046-11.773-12.503-11.773-32.011 0-44.514.22-.235.486-.505 1.016-1.046.318-.325.477-.487.624-.642a32.465 32.465 0 0 0 8.061-30.083 71.14 71.14 0 0 0-.22-.868c-.189-.733-.283-1.1-.357-1.414-3.944-16.714 5.81-33.61 22.257-38.55.309-.093.674-.195 1.403-.398.438-.123.657-.184.862-.243a32.467 32.467 0 0 0 22.023-22.023c.06-.205.12-.424.243-.862.203-.73.305-1.094.398-1.403 4.94-16.447 21.836-26.201 38.55-22.257.314.074.681.168 1.414.357.44.113.661.17.868.22a32.465 32.465 0 0 0 30.083-8.06c.155-.148.317-.307.642-.625Z"/></svg>