<svg xmlns="http://www.w3.org/2000/svg" width="400" height="408" fill="none"><path fill="#6750A4" d="M242.515 54.192c66.021-29.247 133.029 39.101 104.356 106.443l-4.741 11.134a82.387 82.387 0 0 0 0 64.462l4.741 11.134c28.673 67.342-38.335 135.69-104.356 106.443l-10.916-4.836a77.9 77.9 0 0 0-63.198 0l-10.916 4.836c-66.021 29.247-133.03-39.101-104.356-106.443l4.741-11.134a82.393 82.393 0 0 0 0-64.462l-4.74-11.134C24.454 93.293 91.464 24.945 157.484 54.192l10.916 4.836a77.896 77.896 0 0 0 63.198 0l10.916-4.836Z"/></svg>