<svg xmlns="http://www.w3.org/2000/svg" width="373" height="379" fill="none"><path fill="#6750A4" d="M237.837 8.482C317.557-26.858 398.47 55.73 363.846 137.1l-5.724 13.454c-10.571 24.843-10.571 53.049 0 77.892l5.724 13.454c34.624 81.371-46.289 163.959-126.009 128.618l-13.181-5.843a93.999 93.999 0 0 0-76.312 0l-13.181 5.843C55.443 405.859-25.47 323.271 9.153 241.9l5.726-13.454c10.57-24.843 10.57-53.049 0-77.892L9.153 137.1C-25.47 55.73 55.443-26.858 135.163 8.482l13.181 5.843a94.001 94.001 0 0 0 76.312 0l13.181-5.843Z"/></svg>